<?xml version="1.0" encoding="UTF-8"?>
<svg width="30px" height="30px" viewBox="0 0 20 20" version="1.1" xmlns="http://www.w3.org/2000/svg" xmlns:xlink="http://www.w3.org/1999/xlink">
    <!-- Generator: Sketch 51.1 (57501) - http://www.bohemiancoding.com/sketch -->
    <title>Group 2</title>
    <desc>Created with Sketch.</desc>
    <defs/>
    <g id="Page-2" stroke="none" stroke-width="1" fill="none" fill-rule="evenodd">
        <g id="achieves" transform="translate(-297.000000, -571.000000)">
            <g id="Group-2" transform="translate(297.000000, 571.000000)">
                <path d="M6.8907365,19.0360744 C5.54515783,19.2136 4.2482094,18.4648065 3.7291618,17.2107384 L3.45402301,16.545977 L2.78926164,16.2708382 C1.5351935,15.7517906 0.786399973,14.4548422 0.96392564,13.1092635 L1.05802914,12.3959939 L0.619898305,11.825336 C-0.206632768,10.7487935 -0.206632768,9.25120647 0.619898305,8.174664 L1.05802914,7.60400613 L0.96392564,6.8907365 C0.786399973,5.54515783 1.5351935,4.2482094 2.78926164,3.7291618 L3.45402301,3.45402301 L3.7291618,2.78926164 C4.2482094,1.5351935 5.54515783,0.786399973 6.8907365,0.96392564 L7.60400613,1.05802914 L8.174664,0.619898305 C9.25120647,-0.206632768 10.7487935,-0.206632768 11.825336,0.619898305 L12.3959939,1.05802914 L13.1092635,0.96392564 C14.4548422,0.786399973 15.7517906,1.5351935 16.2708382,2.78926164 L16.545977,3.45402301 L17.2107384,3.7291618 C18.4648065,4.2482094 19.2136,5.54515783 19.0360744,6.8907365 L18.9419709,7.60400613 L19.3801017,8.174664 C20.2066328,9.25120647 20.2066328,10.7487935 19.3801017,11.825336 L18.9419709,12.3959939 L19.0360744,13.1092635 C19.2136,14.4548422 18.4648065,15.7517906 17.2107384,16.2708382 L16.545977,16.545977 L16.2708382,17.2107384 C15.7517906,18.4648065 14.4548422,19.2136 13.1092635,19.0360744 L12.3959939,18.9419709 L11.825336,19.3801017 C10.7487935,20.2066328 9.25120647,20.2066328 8.174664,19.3801017 L7.60400613,18.9419709 L6.8907365,19.0360744 Z" id="Path" fill="#FFFFFF" fill-rule="nonzero"/>
                <path d="M7.75374444,16.9052048 C8.01658297,16.8705279 8.2824256,16.9417602 8.49271196,17.1032106 L9.39168814,17.7934126 C9.75045691,18.0688625 10.2495431,18.0688625 10.6083119,17.7934126 L11.507288,17.1032106 C11.7175744,16.9417602 11.983417,16.8705279 12.2462556,16.9052048 L13.3698928,17.0534492 C13.8183206,17.1126114 14.2505419,16.8630683 14.4235198,16.4451373 L14.856955,15.3979168 C14.9583432,15.1529535 15.1529535,14.9583432 15.3979168,14.856955 L16.4451373,14.4235198 C16.8630683,14.2505419 17.1126114,13.8183206 17.0534492,13.3698928 L16.9052048,12.2462556 C16.8705279,11.983417 16.9417602,11.7175744 17.1032106,11.507288 L17.7934126,10.6083119 C18.0688625,10.2495431 18.0688625,9.75045691 17.7934126,9.39168814 L17.1032106,8.49271196 C16.9417602,8.2824256 16.8705279,8.01658297 16.9052048,7.75374444 L17.0534492,6.63010724 C17.1126114,6.18167941 16.8630683,5.74945811 16.4451373,5.57648019 L15.3979168,5.14304498 C15.1529535,5.04165684 14.9583432,4.84704653 14.856955,4.6020832 L14.4235198,3.55486267 C14.2505419,3.13693166 13.8183206,2.88738857 13.3698928,2.94655081 L12.2462556,3.09479516 C11.983417,3.12947213 11.7175744,3.05823982 11.507288,2.89678941 L10.6083119,2.20658744 C10.2495431,1.93113752 9.75045691,1.93113752 9.39168814,2.20658744 L8.49271196,2.89678941 C8.2824256,3.05823982 8.01658297,3.12947213 7.75374444,3.09479516 L6.63010724,2.94655081 C6.18167941,2.88738857 5.74945811,3.13693166 5.57648019,3.55486267 L5.14304498,4.6020832 C5.04165684,4.84704653 4.84704653,5.04165684 4.6020832,5.14304498 L3.55486267,5.57648019 C3.13693166,5.74945811 2.88738857,6.18167941 2.94655081,6.63010724 L3.09479516,7.75374444 C3.12947213,8.01658297 3.05823982,8.2824256 2.89678941,8.49271196 L2.20658744,9.39168814 C1.93113752,9.75045691 1.93113752,10.2495431 2.20658744,10.6083119 L2.89678941,11.507288 C3.05823982,11.7175744 3.12947213,11.983417 3.09479516,12.2462556 L2.94655081,13.3698928 C2.88738857,13.8183206 3.13693166,14.2505419 3.55486267,14.4235198 L4.6020832,14.856955 C4.84704653,14.9583432 5.04165684,15.1529535 5.14304498,15.3979168 L5.57648019,16.4451373 C5.74945811,16.8630683 6.18167941,17.1126114 6.63010724,17.0534492 L7.75374444,16.9052048 Z" id="Star" fill="#1F6AED" fill-rule="nonzero"/>
                <polyline id="Path-2" stroke="#FFFFFF" stroke-width="2" stroke-linecap="round" stroke-linejoin="round" points="7 10.1 9.29565217 12.5 13 8"/>
            </g>
        </g>
    </g>
</svg>